<?xml version="1.0" encoding="UTF-8"?>
<svg id="Layer_1" xmlns="http://www.w3.org/2000/svg" version="1.1" viewBox="0 0 600 156.6">
  <!-- Generator: Adobe Illustrator 29.6.1, SVG Export Plug-In . SVG Version: 2.1.1 Build 9)  -->
  <defs>
    <style>
      .st0 {
        fill: #32006e;
      }
    </style>
  </defs>
  <g>
    <path class="st0" d="M264.5,59h-4.6V19.9h5.8l12.1,27.2,12.1-27.2h5.8v39h-4.6v-30.4l-11.3,25.3h-3.9l-11.3-25.2v30.3Z"/>
    <path class="st0" d="M308.4,37.1h18.8v4.6h-18.8v12.6h20.4v4.6h-25V19.9h25v4.6h-20.4v12.6Z"/>
    <path class="st0" d="M333.7,31.7c0-8.1,7.4-12.4,14.9-12.4s11.3,2.5,13.8,7.8l-4.1,2c-1.8-3.5-5.8-5.3-9.8-5.3s-10.1,2.6-10.1,7.7v15.7c0,5.1,5.1,7.6,10.1,7.6s8.1-1.8,9.8-5.2l4.1,1.9c-2.5,5.3-8.3,7.9-14,7.9s-14.7-4.1-14.7-12.2v-15.6Z"/>
    <path class="st0" d="M372.4,59h-4.6V19.9h4.6v17.3h20.4v-17.3h4.6v39h-4.6v-17.2h-20.4v17.2Z"/>
    <path class="st0" d="M435.5,59h-4.9l-4.5-12.5h-15.1c-1.4,4.1-3,8.4-4.4,12.5h-4.9l14-39h5.6l14.1,39ZM424.5,41.8c-2.2-6-3.7-10.7-6-16.9-2,5.7-3.9,11.1-6,16.9h11.9Z"/>
    <path class="st0" d="M464.8,19.9h4.6v39h-5.8l-19.2-30.9v30.9h-4.6V19.9h5l20.1,32.3V19.9Z"/>
    <path class="st0" d="M482.2,59h-4.6V19.9h4.6v39Z"/>
    <path class="st0" d="M489.2,31.7c0-8.1,7.4-12.4,14.9-12.4s11.3,2.5,13.8,7.8l-4.1,2c-1.8-3.5-5.8-5.3-9.8-5.3s-10.1,2.6-10.1,7.7v15.7c0,5.1,5.1,7.6,10.1,7.6s8.1-1.8,9.8-5.2l4.1,1.9c-2.5,5.3-8.3,7.9-14,7.9s-14.7-4.1-14.7-12.2v-15.6Z"/>
    <path class="st0" d="M553.1,59h-4.9l-4.5-12.5h-15.1c-1.4,4.1-3,8.4-4.4,12.5h-4.9l14-39h5.6l14.1,39ZM542.1,41.8c-2.2-6-3.7-10.7-6-16.9-2,5.7-3.9,11.1-6,16.9h11.9Z"/>
    <path class="st0" d="M557.4,19.9h4.6v34.4h18.8v4.6h-23.4V19.9Z"/>
    <path class="st0" d="M268.8,101.5h15.8v8.6h-15.8v5.8h17.2v9.3h-27.2v-39h27.2v9.3h-17.2v6.1Z"/>
    <path class="st0" d="M348.4,97.7c-2.2-5.2-10.9-4-10.9,1.1v13.4c0,6.1,11.4,6.1,11.4,0v-1.4h-6.2v-8.3h15.7v9.7c0,9-7.5,13.5-15.3,13.5s-15.4-4.5-15.4-13.5v-13.4c0-8.8,7.7-13.2,15.4-13.2s10.9,2.1,13.6,8.3l-8.3,3.8Z"/>
    <path class="st0" d="M372.8,125.2h-9.9v-39h9.9v39Z"/>
    <path class="st0" d="M426.3,101.5h15.8v8.6h-15.8v5.8h17.2v9.3h-27.2v-39h27.2v9.3h-17.2v6.1Z"/>
    <path class="st0" d="M458.7,101.5h15.8v8.6h-15.8v5.8h17.2v9.3h-27.2v-39h27.2v9.3h-17.2v6.1Z"/>
    <path class="st0" d="M492.9,112.8h-1.8v12.4h-10v-39h15.6c8.1,0,14.3,3.7,14.5,12.9,0,7.2-2.9,11.3-7.7,12.8l10.6,13.4h-12.3l-9-12.4ZM496.9,104.3c6.2,0,6.2-8.9,0-8.9h-5.8v8.9h5.8Z"/>
    <path class="st0" d="M526.7,125.2h-9.9v-39h9.9v39Z"/>
    <path class="st0" d="M590,97.7c-2.2-5.2-10.9-4-10.9,1.1v13.4c0,6.1,11.4,6.1,11.4,0v-1.4h-6.2v-8.3h15.7v9.7c0,9-7.5,13.5-15.3,13.5s-15.4-4.5-15.4-13.5v-13.4c0-8.8,7.7-13.2,15.4-13.2s10.9,2.1,13.6,8.3l-8.3,3.8Z"/>
    <path class="st0" d="M291.3,86.1h9.4l12.7,24.5h.3c0,0,0,0-.2,0l-1-24.5h9.8v39.1h-10l-12.2-23.2h-.3c0,0,1.3,23.2,1.3,23.2h-9.9v-39.1Z"/>
    <path class="st0" d="M379,86.1h9.4l12.7,24.5h.3c0,0,0,0-.2,0l-1-24.5h9.8v39.1h-10l-12.2-23.2h-.3c0,0,1.3,23.2,1.3,23.2h-9.9v-39.1Z"/>
    <path class="st0" d="M532.8,86.2h9.4l12.7,24.5h.3c0,0,0,0-.2,0l-1-24.5h9.8v39.1h-10l-12.2-23.2h-.3c0,0,1.3,23.2,1.3,23.2h-9.9v-39.1Z"/>
  </g>
  <rect class="st0" x="208.6" width="4" height="156.6"/>
  <path class="st0" d="M115.1,18.6v19h13.4l-14.9,55.5s-18.3-73.5-18.5-74.5h-19.3c-.3,1-20,74.5-20,74.5l-13.7-55.5h13.9v-19H0v19h12.4s21.3,85.4,21.6,86.4h30c.3-1,14.3-54.4,14.3-54.4,0,0,13.3,53.3,13.6,54.4h30c.3-1,22.7-86.4,22.7-86.4h12.3v-19h-41.7Z"/>
</svg>